PathFileType	4	(X/Y/Z)	c:/Users/goper/Files/vsCode/490R/osim_files/C03/C03_fast_01.trc
DataRate	CameraRate	NumFrames	NumMarkers	Units                	OrigDataRate	OrigDataStartFrame	OrigNumFrames
250.00	250.00	7	36	mm	250.0	1726	2760
                Frame#	Time	LPSIS			LASIS			LTH1			LTH2			LTH3			LTH4			LLFE			LMFE			LSH1			LSH2			LSH3			LSH4			LLMAL			LMMAL			LCAL			LMTP5			LTOE			LMTP1			RPSIS			RASIS			RTH1			RTH2			RTH3			RTH4			RLFE			RMFE			RSH1			RSH2			RSH3			RSH4			RLMAL			RMMAL			RCAL			RMTP1			RTOE			RMTP5		
		X1	Y1	Z1	X2	Y2	Z2	X3	Y3	Z3	X4	Y4	Z4	X5	Y5	Z5	X6	Y6	Z6	X7	Y7	Z7	X8	Y8	Z8	X9	Y9	Z9	X10	Y10	Z10	X11	Y11	Z11	X12	Y12	Z12	X13	Y13	Z13	X14	Y14	Z14	X15	Y15	Z15	X16	Y16	Z16	X17	Y17	Z17	X18	Y18	Z18	X19	Y19	Z19	X20	Y20	Z20	X21	Y21	Z21	X22	Y22	Z22	X23	Y23	Z23	X24	Y24	Z24	X25	Y25	Z25	X26	Y26	Z26	X27	Y27	Z27	X28	Y28	Z28	X29	Y29	Z29	X30	Y30	Z30	X31	Y31	Z31	X32	Y32	Z32	X33	Y33	Z33	X34	Y34	Z34	X35	Y35	Z35	X36	Y36	Z36

1726	6.90000	-2748.02173	1047.51855	317.33542	-2929.58301	993.61548	339.93710	-2835.34351	635.58093	387.38052	-2844.02148	573.82800	375.43741	-2912.77222	642.00775	379.81903	-2910.42529	581.06622	367.87845	-2869.24854	490.79510	355.42834	-2859.78809	492.39996	244.22772	-2795.86133	311.63773	358.50296	-2798.06665	265.46835	351.30707	-2858.71631	313.00900	359.18198	-2852.50293	265.57016	352.65103	-2827.10645	103.10951	316.09613	-2842.77197	117.13499	238.16350	-2754.01904	70.61158	287.18298	-2960.52222	51.44457	325.50894	-2989.29565	67.79162	270.28146	-2963.77881	56.11215	232.67419	-2744.41528	1034.83301	204.84914	-2912.08521	991.92194	136.53307	-2905.86475	612.48169	140.50151	0.00000	0.00000	0.00000	-2957.65796	628.82288	102.15301	-2987.50439	574.26166	107.09152	-2999.15015	506.12427	121.04430	-3021.11719	523.32257	235.50238	-2813.69995	428.32550	136.13303	-2784.29004	391.44208	138.33839	-2852.72437	384.36639	113.72709	-2818.77295	357.20026	118.36604	-2709.08203	247.46022	146.88914	-2734.01025	232.29944	221.79387	-2637.35986	261.99078	195.33701	-2776.48193	107.93733	205.35233	-2807.06226	108.18424	163.89009	-2738.99707	122.79843	107.77892
1727	6.90400	-2753.07666	1047.99438	317.05435	-2934.06934	993.34393	340.72870	-2838.00928	635.96790	387.37964	-2846.36865	574.55835	375.33298	-2915.94946	642.31946	379.29123	-2912.56421	580.88263	367.89346	-2870.56592	490.90869	355.45950	-2861.56152	492.58899	244.20122	-2796.31079	312.18271	358.47754	-2798.65894	265.89362	351.06598	-2857.20068	311.82452	358.14346	-2853.07349	265.85593	352.67053	-2826.86377	103.54070	316.57864	-2843.13599	117.40020	238.03770	-2754.10742	70.73457	287.09512	-2961.01172	51.46722	325.79572	-2989.39258	67.60584	270.30838	-2963.89453	56.04586	232.68280	-2750.01270	1035.38037	204.47781	-2917.95605	992.87030	137.01828	-2914.56885	614.12189	139.82712	0.00000	0.00000	0.00000	-2966.63647	630.91815	102.30198	-3000.36841	578.16077	106.78728	-3010.13281	508.51501	121.74598	-3028.92798	525.39105	235.85469	-2825.33521	427.14441	136.43274	-2795.60718	389.82858	138.48621	-2865.84766	383.81421	114.12212	-2831.39038	356.25833	118.50849	-2723.67212	244.30330	146.85300	-2749.02075	229.45872	221.58344	-2651.53857	256.96088	195.24319	-2794.82178	106.10300	204.75084	-2825.09644	107.44904	163.26106	-2757.05664	120.66129	107.29668
1728	6.90800	-2758.36670	1048.42493	316.75702	-2939.09302	993.53668	341.37955	-2840.60083	636.33252	387.40793	-2848.53906	574.83832	375.31448	-2918.60181	642.08331	379.33731	-2914.65991	580.71185	367.91437	-2871.44824	491.01144	355.25290	-2863.07715	492.71750	244.12393	-2796.89844	312.65811	358.19452	-2799.04980	266.32028	350.76389	-2858.25293	312.52252	358.27716	-2853.50830	266.09366	352.67517	-2827.08813	103.79592	316.42917	-2843.51538	117.64252	237.94995	-2754.16772	70.90636	287.04208	-2961.08765	51.44677	325.82819	-2989.49829	67.43695	270.32581	-2963.99023	55.96142	232.67903	-2755.82471	1035.93933	204.04802	-2923.87451	993.74780	137.54201	-2925.54175	614.53583	136.83580	0.00000	0.00000	0.00000	-2975.54736	632.92542	102.37439	-3009.85693	580.57593	107.15704	-3019.94775	510.83661	122.36044	-3039.17163	528.94031	236.72145	-2836.22388	425.98608	136.40494	-2807.73120	387.99127	138.51257	-2877.99634	383.39688	114.43616	-2843.56177	355.28275	118.74111	-2738.40479	241.06906	146.78912	-2763.84351	226.52072	221.44899	-2665.90088	251.72021	195.22893	-2813.55933	104.39214	204.44183	-2843.28516	106.64889	162.66887	-2774.24780	118.53355	106.60358
1729	6.91200	-2763.45581	1048.71643	316.36227	-2944.31055	993.68768	341.99258	-2843.23047	636.68262	387.34692	-2850.82520	575.24884	375.38284	-2921.34155	641.92151	379.33411	-2916.80298	580.52887	367.82541	-2873.02002	491.12524	355.40756	-2865.01001	492.92407	244.08304	-2797.48877	313.07971	357.90842	-2799.40991	266.74246	350.50943	-2860.53687	313.71832	359.19131	-2853.85669	266.28922	352.63831	-2827.36670	104.09332	316.29047	-2843.85498	117.83871	237.82135	-2754.26929	71.01521	286.96118	-2961.09229	51.37574	325.82394	-2989.59790	67.26398	270.30914	-2963.90649	55.27913	233.09828	-2761.36084	1036.39978	203.59264	-2929.83618	994.59515	138.07571	-2931.72681	615.32050	139.06488	0.00000	0.00000	0.00000	-2984.34155	634.94653	102.48088	-3019.25952	582.98712	107.48787	-3029.68042	513.12146	122.94198	-3046.54175	530.70996	236.92679	-2847.52661	424.57892	136.76019	-2819.43237	386.14438	138.60168	-2888.96973	383.04886	114.59475	-2856.60229	353.99191	118.84314	-2753.81885	237.44008	146.67188	-2778.20312	223.55148	221.44937	-2680.40771	246.41895	195.20615	-2831.62378	102.57066	203.76297	-2861.33350	105.74236	161.99672	-2792.33154	116.25204	106.12833
1730	6.91600	-2768.62305	1048.97009	316.00223	-2949.38599	993.77881	342.64859	-2845.97461	637.10931	387.28592	-2852.99854	575.58386	375.26270	-2924.10840	641.70947	379.21579	-2919.05347	580.37134	367.70779	-2874.38721	491.30219	355.40308	-2866.62671	493.10504	244.02386	-2798.05859	313.49271	357.61087	-2799.81323	267.21631	350.28693	-2860.97559	313.90045	359.16919	-2854.31812	266.56326	352.58228	-2827.60864	104.43565	316.16467	-2844.19116	118.07141	237.68880	-2754.39551	71.13670	286.88284	-2961.13184	51.36933	325.81894	-2988.37207	66.30447	269.34183	-2964.00171	55.22443	233.08527	-2766.98486	1036.85706	203.14493	-2935.76123	995.33282	138.60132	-2942.49194	617.37769	135.91969	0.00000	0.00000	0.00000	-2993.06226	636.95233	102.60768	-3028.52588	585.31848	107.86501	-3039.23145	515.41766	123.51521	-3056.62427	534.20490	237.77791	-2858.60571	423.09619	136.92686	-2831.66846	383.92795	138.84772	-2900.94019	382.53864	114.78595	-2869.32129	352.59427	118.95223	-2768.19727	234.19713	146.60091	-2793.46021	220.38316	221.28564	-2695.05884	241.03180	195.24966	-2849.88794	100.77776	203.08888	-2879.60474	104.91368	161.39415	-2810.45728	113.88137	105.37862
1731	6.92000	-2773.66089	1049.17322	315.56509	-2954.56152	993.86993	343.28540	-2848.74756	637.31812	387.45996	-2855.25464	575.91010	375.29187	-2926.71973	641.54352	379.10715	-2921.35205	580.27509	367.59521	-2875.67798	491.44360	355.34610	-2868.20630	493.23083	243.91994	-2798.56567	314.01050	357.32031	-2800.24365	267.68115	350.00327	-2861.66284	314.21368	359.14627	-2854.76709	266.84683	352.52716	-2827.86694	104.76129	316.04123	-2844.49292	118.34578	237.56798	-2754.55737	71.26465	286.82242	-2960.80688	51.32426	325.54431	-2988.52490	66.50190	269.59460	-2964.07275	55.19574	233.07898	-2772.90503	1037.28552	202.56612	-2941.71362	996.04089	139.16837	-2949.12500	619.03162	136.86087	0.00000	0.00000	0.00000	-3001.66821	638.85553	102.77557	-3037.66309	587.63373	108.22685	-3048.65894	517.64514	124.12333	-3063.94043	536.05536	238.05180	-2870.27710	421.30380	137.06720	-2844.25659	381.53326	138.89305	-2912.94800	381.82629	114.97567	-2881.35718	351.44189	119.05326	-2783.91650	230.42987	146.49353	-2808.57861	217.34203	221.16092	-2710.01050	235.41217	195.22928	-2868.22217	99.04303	202.37636	-2897.76221	103.97778	160.72736	-2828.46069	111.64803	104.86253
1732	6.92400	-2778.68286	1049.37439	315.13196	-2960.31519	994.36798	343.76968	-2851.68481	637.86481	387.10745	-2859.04956	578.30396	376.77792	-2929.39014	641.41132	378.85736	-2923.65332	580.20020	367.42899	-2876.81641	491.66141	355.27466	-2869.49097	493.41693	243.77817	-2799.32568	314.33798	356.84000	-2800.81055	268.11539	349.69754	-2862.41602	314.29968	359.07849	-2855.22754	267.12195	352.45981	-2828.07666	105.08247	315.88293	-2844.82568	118.64459	237.37799	-2755.04980	71.27201	286.88434	-2960.86279	51.32078	325.53091	-2988.59277	66.39545	269.60492	-2964.15088	55.15778	233.06618	-2778.03418	1037.68970	202.15359	-2946.01660	995.61310	140.13429	-2956.76855	618.96600	138.02608	-2981.15088	562.38177	152.10887	-3010.14966	640.75934	102.93140	-3046.58130	589.84906	108.65066	-3057.90454	519.80121	124.68761	-3073.50342	539.09540	238.83231	-2880.25488	419.77380	137.11195	-2856.16333	379.18881	138.94331	-2924.84839	381.00485	115.21346	-2893.95044	349.88974	119.20708	-2799.06079	226.78745	146.36263	-2825.40283	213.62227	220.99638	-2724.87183	229.84390	195.22829	-2886.63940	97.25995	201.67212	-2916.19336	103.15661	160.12550	-2846.52319	109.33012	104.27716
